# xmcd
#
# Track frame offsets:
#	150
#	31516
#	59408
#	112476
#	159147
#	188762
#	218516
#	264974
#	303644
#
# Disc length: 4384 seconds
#
# Revision: 1
# Processed by: cddbd v1.5.2PL0 Copyright (c) Steve Scherf et al.
# Submitted via: audiograbber 1.83.01
#
DISCID=71111e09
DTITLE=Grateful Dead - 80-10-09 Warfield Theatre, San Francisco CA
DYEAR=1900
DGENRE=
TTITLE0=Lost Sailor
TTITLE1=Saint Of Circumstance
TTITLE2=Terrapin Station
TTITLE3=Drums
TTITLE4=Space
TTITLE5=Not Fade Away
TTITLE6=Wharf Rat
TTITLE7=Sugar Magnolia
TTITLE8=Casey Jones
EXTD=
EXTT0=
EXTT1=
EXTT2=
EXTT3=
EXTT4=
EXTT5=
EXTT6=
EXTT7=
EXTT8=
PLAYORDER=
